<mxfile host="app.diagrams.net" agent="Mozilla/5.0 (Macintosh; Intel Mac OS X 10_15_7) AppleWebKit/537.36 (KHTML, like Gecko) Chrome/129.0.0.0 Safari/537.36" version="24.7.16">
  <diagram name="페이지-1" id="rK1tdjysPAr_Y2TKpE3c">
    <mxGraphModel dx="872" dy="462" grid="1" gridSize="10" guides="1" tooltips="1" connect="1" arrows="1" fold="1" page="1" pageScale="1" pageWidth="827" pageHeight="1169" math="0" shadow="0">
      <root>
        <mxCell id="0" />
        <mxCell id="1" parent="0" />
        <mxCell id="nwgFIAwb6D6mSzODj8zX-1" value="Licenses" style="swimlane;fontStyle=0;childLayout=stackLayout;horizontal=1;startSize=26;horizontalStack=0;resizeParent=1;resizeParentMax=0;resizeLast=0;collapsible=1;marginBottom=0;align=center;fontSize=14;" vertex="1" parent="1">
          <mxGeometry x="199" y="170" width="160" height="146" as="geometry" />
        </mxCell>
        <mxCell id="nwgFIAwb6D6mSzODj8zX-2" value="&lt;u&gt;License_No&lt;/u&gt;" style="text;strokeColor=none;fillColor=none;spacingLeft=4;spacingRight=4;overflow=hidden;rotatable=0;points=[[0,0.5],[1,0.5]];portConstraint=eastwest;fontSize=12;whiteSpace=wrap;html=1;" vertex="1" parent="nwgFIAwb6D6mSzODj8zX-1">
          <mxGeometry y="26" width="160" height="30" as="geometry" />
        </mxCell>
        <mxCell id="nwgFIAwb6D6mSzODj8zX-3" value="Season" style="text;strokeColor=none;fillColor=none;spacingLeft=4;spacingRight=4;overflow=hidden;rotatable=0;points=[[0,0.5],[1,0.5]];portConstraint=eastwest;fontSize=12;whiteSpace=wrap;html=1;" vertex="1" parent="nwgFIAwb6D6mSzODj8zX-1">
          <mxGeometry y="56" width="160" height="30" as="geometry" />
        </mxCell>
        <mxCell id="nwgFIAwb6D6mSzODj8zX-4" value="State" style="text;strokeColor=none;fillColor=none;spacingLeft=4;spacingRight=4;overflow=hidden;rotatable=0;points=[[0,0.5],[1,0.5]];portConstraint=eastwest;fontSize=12;whiteSpace=wrap;html=1;" vertex="1" parent="nwgFIAwb6D6mSzODj8zX-1">
          <mxGeometry y="86" width="160" height="30" as="geometry" />
        </mxCell>
        <mxCell id="nwgFIAwb6D6mSzODj8zX-14" value="&lt;div&gt;SSN(FK)&lt;/div&gt;" style="text;strokeColor=none;fillColor=none;spacingLeft=4;spacingRight=4;overflow=hidden;rotatable=0;points=[[0,0.5],[1,0.5]];portConstraint=eastwest;fontSize=12;whiteSpace=wrap;html=1;" vertex="1" parent="nwgFIAwb6D6mSzODj8zX-1">
          <mxGeometry y="116" width="160" height="30" as="geometry" />
        </mxCell>
        <mxCell id="nwgFIAwb6D6mSzODj8zX-5" value="Residents" style="swimlane;fontStyle=0;childLayout=stackLayout;horizontal=1;startSize=26;horizontalStack=0;resizeParent=1;resizeParentMax=0;resizeLast=0;collapsible=1;marginBottom=0;align=center;fontSize=14;" vertex="1" parent="1">
          <mxGeometry x="179" y="340" width="160" height="206" as="geometry" />
        </mxCell>
        <mxCell id="nwgFIAwb6D6mSzODj8zX-6" value="&lt;u&gt;SSN&lt;/u&gt;" style="text;strokeColor=none;fillColor=none;spacingLeft=4;spacingRight=4;overflow=hidden;rotatable=0;points=[[0,0.5],[1,0.5]];portConstraint=eastwest;fontSize=12;whiteSpace=wrap;html=1;" vertex="1" parent="nwgFIAwb6D6mSzODj8zX-5">
          <mxGeometry y="26" width="160" height="30" as="geometry" />
        </mxCell>
        <mxCell id="nwgFIAwb6D6mSzODj8zX-7" value="Name" style="text;strokeColor=none;fillColor=none;spacingLeft=4;spacingRight=4;overflow=hidden;rotatable=0;points=[[0,0.5],[1,0.5]];portConstraint=eastwest;fontSize=12;whiteSpace=wrap;html=1;" vertex="1" parent="nwgFIAwb6D6mSzODj8zX-5">
          <mxGeometry y="56" width="160" height="30" as="geometry" />
        </mxCell>
        <mxCell id="nwgFIAwb6D6mSzODj8zX-8" value="Street" style="text;strokeColor=none;fillColor=none;spacingLeft=4;spacingRight=4;overflow=hidden;rotatable=0;points=[[0,0.5],[1,0.5]];portConstraint=eastwest;fontSize=12;whiteSpace=wrap;html=1;" vertex="1" parent="nwgFIAwb6D6mSzODj8zX-5">
          <mxGeometry y="86" width="160" height="30" as="geometry" />
        </mxCell>
        <mxCell id="nwgFIAwb6D6mSzODj8zX-10" value="City" style="text;strokeColor=none;fillColor=none;spacingLeft=4;spacingRight=4;overflow=hidden;rotatable=0;points=[[0,0.5],[1,0.5]];portConstraint=eastwest;fontSize=12;whiteSpace=wrap;html=1;" vertex="1" parent="nwgFIAwb6D6mSzODj8zX-5">
          <mxGeometry y="116" width="160" height="30" as="geometry" />
        </mxCell>
        <mxCell id="nwgFIAwb6D6mSzODj8zX-12" value="State" style="text;strokeColor=none;fillColor=none;spacingLeft=4;spacingRight=4;overflow=hidden;rotatable=0;points=[[0,0.5],[1,0.5]];portConstraint=eastwest;fontSize=12;whiteSpace=wrap;html=1;" vertex="1" parent="nwgFIAwb6D6mSzODj8zX-5">
          <mxGeometry y="146" width="160" height="30" as="geometry" />
        </mxCell>
        <mxCell id="nwgFIAwb6D6mSzODj8zX-11" value="Zip" style="text;strokeColor=none;fillColor=none;spacingLeft=4;spacingRight=4;overflow=hidden;rotatable=0;points=[[0,0.5],[1,0.5]];portConstraint=eastwest;fontSize=12;whiteSpace=wrap;html=1;" vertex="1" parent="nwgFIAwb6D6mSzODj8zX-5">
          <mxGeometry y="176" width="160" height="30" as="geometry" />
        </mxCell>
        <mxCell id="nwgFIAwb6D6mSzODj8zX-15" value="Sport_Fishers" style="swimlane;fontStyle=0;childLayout=stackLayout;horizontal=1;startSize=26;horizontalStack=0;resizeParent=1;resizeParentMax=0;resizeLast=0;collapsible=1;marginBottom=0;align=center;fontSize=14;" vertex="1" parent="1">
          <mxGeometry x="489" y="100" width="160" height="146" as="geometry" />
        </mxCell>
        <mxCell id="nwgFIAwb6D6mSzODj8zX-18" value="&lt;u&gt;Prior_year_License_No(&lt;/u&gt;FK)" style="text;strokeColor=none;fillColor=none;spacingLeft=4;spacingRight=4;overflow=hidden;rotatable=0;points=[[0,0.5],[1,0.5]];portConstraint=eastwest;fontSize=12;whiteSpace=wrap;html=1;" vertex="1" parent="nwgFIAwb6D6mSzODj8zX-15">
          <mxGeometry y="26" width="160" height="30" as="geometry" />
        </mxCell>
        <mxCell id="nwgFIAwb6D6mSzODj8zX-17" value="Number_years" style="text;strokeColor=none;fillColor=none;spacingLeft=4;spacingRight=4;overflow=hidden;rotatable=0;points=[[0,0.5],[1,0.5]];portConstraint=eastwest;fontSize=12;whiteSpace=wrap;html=1;" vertex="1" parent="nwgFIAwb6D6mSzODj8zX-15">
          <mxGeometry y="56" width="160" height="30" as="geometry" />
        </mxCell>
        <mxCell id="nwgFIAwb6D6mSzODj8zX-16" value="License_No(FK)" style="text;strokeColor=none;fillColor=none;spacingLeft=4;spacingRight=4;overflow=hidden;rotatable=0;points=[[0,0.5],[1,0.5]];portConstraint=eastwest;fontSize=12;whiteSpace=wrap;html=1;" vertex="1" parent="nwgFIAwb6D6mSzODj8zX-15">
          <mxGeometry y="86" width="160" height="30" as="geometry" />
        </mxCell>
        <mxCell id="nwgFIAwb6D6mSzODj8zX-33" value="SSN(FK)" style="text;strokeColor=none;fillColor=none;spacingLeft=4;spacingRight=4;overflow=hidden;rotatable=0;points=[[0,0.5],[1,0.5]];portConstraint=eastwest;fontSize=12;whiteSpace=wrap;html=1;" vertex="1" parent="nwgFIAwb6D6mSzODj8zX-15">
          <mxGeometry y="116" width="160" height="30" as="geometry" />
        </mxCell>
        <mxCell id="nwgFIAwb6D6mSzODj8zX-22" value="Commercial_Fishers" style="swimlane;fontStyle=0;childLayout=stackLayout;horizontal=1;startSize=26;horizontalStack=0;resizeParent=1;resizeParentMax=0;resizeLast=0;collapsible=1;marginBottom=0;align=center;fontSize=14;" vertex="1" parent="1">
          <mxGeometry x="489" y="300" width="160" height="176" as="geometry" />
        </mxCell>
        <mxCell id="nwgFIAwb6D6mSzODj8zX-28" value="&lt;u&gt;Tax_ID(&lt;/u&gt;FK)" style="text;strokeColor=none;fillColor=none;spacingLeft=4;spacingRight=4;overflow=hidden;rotatable=0;points=[[0,0.5],[1,0.5]];portConstraint=eastwest;fontSize=12;whiteSpace=wrap;html=1;" vertex="1" parent="nwgFIAwb6D6mSzODj8zX-22">
          <mxGeometry y="26" width="160" height="30" as="geometry" />
        </mxCell>
        <mxCell id="nwgFIAwb6D6mSzODj8zX-25" value="Vessel_number" style="text;strokeColor=none;fillColor=none;spacingLeft=4;spacingRight=4;overflow=hidden;rotatable=0;points=[[0,0.5],[1,0.5]];portConstraint=eastwest;fontSize=12;whiteSpace=wrap;html=1;" vertex="1" parent="nwgFIAwb6D6mSzODj8zX-22">
          <mxGeometry y="56" width="160" height="30" as="geometry" />
        </mxCell>
        <mxCell id="nwgFIAwb6D6mSzODj8zX-27" value="Vessel_name" style="text;strokeColor=none;fillColor=none;spacingLeft=4;spacingRight=4;overflow=hidden;rotatable=0;points=[[0,0.5],[1,0.5]];portConstraint=eastwest;fontSize=12;whiteSpace=wrap;html=1;" vertex="1" parent="nwgFIAwb6D6mSzODj8zX-22">
          <mxGeometry y="86" width="160" height="30" as="geometry" />
        </mxCell>
        <mxCell id="nwgFIAwb6D6mSzODj8zX-29" value="Vessel_type" style="text;strokeColor=none;fillColor=none;spacingLeft=4;spacingRight=4;overflow=hidden;rotatable=0;points=[[0,0.5],[1,0.5]];portConstraint=eastwest;fontSize=12;whiteSpace=wrap;html=1;" vertex="1" parent="nwgFIAwb6D6mSzODj8zX-22">
          <mxGeometry y="116" width="160" height="30" as="geometry" />
        </mxCell>
        <mxCell id="nwgFIAwb6D6mSzODj8zX-24" value="License_No(FK)" style="text;strokeColor=none;fillColor=none;spacingLeft=4;spacingRight=4;overflow=hidden;rotatable=0;points=[[0,0.5],[1,0.5]];portConstraint=eastwest;fontSize=12;whiteSpace=wrap;html=1;" vertex="1" parent="nwgFIAwb6D6mSzODj8zX-22">
          <mxGeometry y="146" width="160" height="30" as="geometry" />
        </mxCell>
        <mxCell id="nwgFIAwb6D6mSzODj8zX-31" value="" style="edgeStyle=entityRelationEdgeStyle;fontSize=12;html=1;endArrow=ERoneToMany;startArrow=ERmandOne;rounded=0;exitX=1.004;exitY=0.09;exitDx=0;exitDy=0;exitPerimeter=0;" edge="1" parent="1" source="nwgFIAwb6D6mSzODj8zX-6" target="nwgFIAwb6D6mSzODj8zX-14">
          <mxGeometry width="100" height="100" relative="1" as="geometry">
            <mxPoint x="259" y="436" as="sourcePoint" />
            <mxPoint x="359" y="336" as="targetPoint" />
          </mxGeometry>
        </mxCell>
        <mxCell id="nwgFIAwb6D6mSzODj8zX-32" value="" style="edgeStyle=entityRelationEdgeStyle;fontSize=12;html=1;endArrow=ERzeroToOne;startArrow=ERmandOne;rounded=0;entryX=0.999;entryY=0.163;entryDx=0;entryDy=0;entryPerimeter=0;" edge="1" parent="1" source="nwgFIAwb6D6mSzODj8zX-18" target="nwgFIAwb6D6mSzODj8zX-2">
          <mxGeometry width="100" height="100" relative="1" as="geometry">
            <mxPoint x="299" y="150" as="sourcePoint" />
            <mxPoint x="419" y="190" as="targetPoint" />
            <Array as="points">
              <mxPoint x="139" y="-30" />
            </Array>
          </mxGeometry>
        </mxCell>
        <mxCell id="nwgFIAwb6D6mSzODj8zX-34" value="" style="edgeStyle=entityRelationEdgeStyle;fontSize=12;html=1;endArrow=ERmandOne;startArrow=ERmandOne;rounded=0;exitX=0.999;exitY=0.675;exitDx=0;exitDy=0;exitPerimeter=0;" edge="1" parent="1" source="nwgFIAwb6D6mSzODj8zX-2" target="nwgFIAwb6D6mSzODj8zX-24">
          <mxGeometry width="100" height="100" relative="1" as="geometry">
            <mxPoint x="469" y="320" as="sourcePoint" />
            <mxPoint x="569" y="220" as="targetPoint" />
          </mxGeometry>
        </mxCell>
        <mxCell id="nwgFIAwb6D6mSzODj8zX-35" value="&lt;span style=&quot;color: rgba(0, 0, 0, 0); font-family: monospace; font-size: 0px; text-align: start; background-color: rgb(251, 251, 251);&quot;&gt;%3CmxGraphModel%3E%3Croot%3E%3CmxCell%20id%3D%220%22%2F%3E%3CmxCell%20id%3D%221%22%20parent%3D%220%22%2F%3E%3CmxCell%20id%3D%222%22%20value%3D%22%22%20style%3D%22edgeStyle%3DentityRelationEdgeStyle%3BfontSize%3D12%3Bhtml%3D1%3BendArrow%3DERoneToMany%3BstartArrow%3DERmandOne%3Brounded%3D0%3B%22%20edge%3D%221%22%20parent%3D%221%22%3E%3CmxGeometry%20width%3D%22100%22%20height%3D%22100%22%20relative%3D%221%22%20as%3D%22geometry%22%3E%3CmxPoint%20x%3D%22230%22%20y%3D%22381%22%20as%3D%22sourcePoint%22%2F%3E%3CmxPoint%20x%3D%22240%22%20y%3D%22301%22%20as%3D%22targetPoint%22%2F%3E%3C%2FmxGeometry%3E%3C%2FmxCell%3E%3C%2Froot%3E%3C%2FmxGraphModel%3E&lt;/span&gt;&lt;span style=&quot;color: rgba(0, 0, 0, 0); font-family: monospace; font-size: 0px; text-align: start; background-color: rgb(251, 251, 251);&quot;&gt;%3CmxGraphModel%3E%3Croot%3E%3CmxCell%20id%3D%220%22%2F%3E%3CmxCell%20id%3D%221%22%20parent%3D%220%22%2F%3E%3CmxCell%20id%3D%222%22%20value%3D%22%22%20style%3D%22edgeStyle%3DentityRelationEdgeStyle%3BfontSize%3D12%3Bhtml%3D1%3BendArrow%3DERoneToMany%3BstartArrow%3DERmandOne%3Brounded%3D0%3B%22%20edge%3D%221%22%20parent%3D%221%22%3E%3CmxGeometry%20width%3D%22100%22%20height%3D%22100%22%20relative%3D%221%22%20as%3D%22geometry%22%3E%3CmxPoint%20x%3D%22230%22%20y%3D%22381%22%20as%3D%22sourcePoint%22%2F%3E%3CmxPoint%20x%3D%22240%22%20y%3D%22301%22%20as%3D%22targetPoint%22%2F%3E%3C%2FmxGeometry%3E%3C%2FmxCell%3E%3C%2Froot%3E%3C%2FmxGraphModel%3E&lt;/span&gt;" style="edgeStyle=entityRelationEdgeStyle;fontSize=12;html=1;endArrow=ERoneToMany;startArrow=ERmandOne;rounded=0;entryX=0;entryY=0.5;entryDx=0;entryDy=0;exitX=1.004;exitY=0.34;exitDx=0;exitDy=0;exitPerimeter=0;" edge="1" parent="1" source="nwgFIAwb6D6mSzODj8zX-6" target="nwgFIAwb6D6mSzODj8zX-33">
          <mxGeometry width="100" height="100" relative="1" as="geometry">
            <mxPoint x="359" y="391" as="sourcePoint" />
            <mxPoint x="369" y="311" as="targetPoint" />
          </mxGeometry>
        </mxCell>
        <mxCell id="nwgFIAwb6D6mSzODj8zX-36" value="&lt;span style=&quot;color: rgba(0, 0, 0, 0); font-family: monospace; font-size: 0px; text-align: start; background-color: rgb(251, 251, 251);&quot;&gt;%3CmxGraphModel%3E%3Croot%3E%3CmxCell%20id%3D%220%22%2F%3E%3CmxCell%20id%3D%221%22%20parent%3D%220%22%2F%3E%3CmxCell%20id%3D%222%22%20value%3D%22%22%20style%3D%22edgeStyle%3DentityRelationEdgeStyle%3BfontSize%3D12%3Bhtml%3D1%3BendArrow%3DERoneToMany%3BstartArrow%3DERmandOne%3Brounded%3D0%3B%22%20edge%3D%221%22%20parent%3D%221%22%3E%3CmxGeometry%20width%3D%22100%22%20height%3D%22100%22%20relative%3D%221%22%20as%3D%22geometry%22%3E%3CmxPoint%20x%3D%22230%22%20y%3D%22381%22%20as%3D%22sourcePoint%22%2F%3E%3CmxPoint%20x%3D%22240%22%20y%3D%22301%22%20as%3D%22targetPoint%22%2F%3E%3C%2FmxGeometry%3E%3C%2FmxCell%3E%3C%2Froot%3E%3C%2FmxGraphModel%3E&lt;/span&gt;&lt;span style=&quot;color: rgba(0, 0, 0, 0); font-family: monospace; font-size: 0px; text-align: start; background-color: rgb(251, 251, 251);&quot;&gt;%3CmxGraphModel%3E%3Croot%3E%3CmxCell%20id%3D%220%22%2F%3E%3CmxCell%20id%3D%221%22%20parent%3D%220%22%2F%3E%3CmxCell%20id%3D%222%22%20value%3D%22%22%20style%3D%22edgeStyle%3DentityRelationEdgeStyle%3BfontSize%3D12%3Bhtml%3D1%3BendArrow%3DERoneToMany%3BstartArrow%3DERmandOne%3Brounded%3D0%3B%22%20edge%3D%221%22%20parent%3D%221%22%3E%3CmxGeometry%20width%3D%22100%22%20height%3D%22100%22%20relative%3D%221%22%20as%3D%22geometry%22%3E%3CmxPoint%20x%3D%22230%22%20y%3D%22381%22%20as%3D%22sourcePoint%22%2F%3E%3CmxPoint%20x%3D%22240%22%20y%3D%22301%22%20as%3D%22targetPoint%22%2F%3E%3C%2FmxGeometry%3E%3C%2FmxCell%3E%3C%2Froot%3E%3C%2FmxGraphModel%3E&lt;/span&gt;" style="edgeStyle=entityRelationEdgeStyle;fontSize=12;html=1;endArrow=ERoneToMany;startArrow=ERmandOne;rounded=0;exitX=1.004;exitY=0.595;exitDx=0;exitDy=0;exitPerimeter=0;" edge="1" parent="1" source="nwgFIAwb6D6mSzODj8zX-6" target="nwgFIAwb6D6mSzODj8zX-28">
          <mxGeometry width="100" height="100" relative="1" as="geometry">
            <mxPoint x="350" y="386" as="sourcePoint" />
            <mxPoint x="539" y="340" as="targetPoint" />
          </mxGeometry>
        </mxCell>
        <mxCell id="nwgFIAwb6D6mSzODj8zX-37" value="" style="edgeStyle=entityRelationEdgeStyle;fontSize=12;html=1;endArrow=ERmandOne;startArrow=ERmandOne;rounded=0;exitX=0.999;exitY=0.421;exitDx=0;exitDy=0;exitPerimeter=0;" edge="1" parent="1" source="nwgFIAwb6D6mSzODj8zX-2" target="nwgFIAwb6D6mSzODj8zX-16">
          <mxGeometry width="100" height="100" relative="1" as="geometry">
            <mxPoint x="399" y="200" as="sourcePoint" />
            <mxPoint x="459" y="200" as="targetPoint" />
          </mxGeometry>
        </mxCell>
      </root>
    </mxGraphModel>
  </diagram>
</mxfile>
